M48
;DRILL file {KiCad 4.0.7} date 05/05/18 17:31:24
;FORMAT={2:4/ absolute / inch / suppress trailing zeros}
FMAT,2
INCH,LZ
T1C0.039
T2C0.126
T3C0.118
%
G90
G05
M72
T1
X0543Y-0358
X0543Y-0368
X0543Y-0378
X0543Y-0388
X0543Y-0398
X0543Y-0408
X0543Y-0418
X0543Y-0428
X058209Y-044207
X058209Y-045388
X059391Y-044207
X059391Y-045388
X0633Y-0358
X0633Y-0368
X0633Y-0378
X0633Y-0388
X0633Y-0398
X0633Y-0408
X0633Y-0418
X0633Y-0428
T2
X055Y-03255
X055Y-04725
X0626Y-03255
X0626Y-04725
T3
X0588Y-047089
T0
M30
