M48
;DRILL file {KiCad 4.0.7} date 05/14/18 22:24:06
;FORMAT={-:-/ absolute / inch / decimal}
FMAT,2
INCH,TZ
T1C0.039
T2C0.126
T3C0.118
%
G90
G05
M72
T1
X5.4331Y-3.5039
X5.4331Y-3.6039
X5.4331Y-3.7039
X5.4331Y-3.8039
X5.4331Y-3.9039
X5.4331Y-4.0039
X5.4331Y-4.1039
X5.4331Y-4.2039
X5.8209Y-4.4207
X5.8209Y-4.5388
X5.9391Y-4.4207
X5.9391Y-4.5388
X6.3331Y-3.5039
X6.3331Y-3.6039
X6.3331Y-3.7039
X6.3331Y-3.8039
X6.3331Y-3.9039
X6.3331Y-4.0039
X6.3331Y-4.1039
X6.3331Y-4.2039
T2
X5.5Y-3.255
X5.5Y-4.725
X6.26Y-3.255
X6.26Y-4.725
T3
X5.88Y-4.7089
T0
M30
